#!OML:ASF E:\Steps\Project 1\Capture day 1\Session 2\Subject.ASF
:FULLY-SPECIFIED
:DEGREES
51
root 8.96665 16.2706 31.6727 -158.494 -2.94128 176.041
lowerback -25.4015 -2.5427 -8.97914
upperback -1.28188 -1.12998 -1.39635
thorax 12.929 -1.23695 3.09724
lowerneck 0.516648 -2.67334 -1.89326
upperneck -16.559 -4.05788 6.12108
head -4.87362 -2.72539 2.42602
rclavicle 4.37326e-015 -1.23246e-014
rhumerus -33.3327 -18.4698 -80.3362
rradius 26.6552
rwrist 0.648768
rhand -6.29469 -55.1031
rfingers 7.12502
rthumb 19.549 -84.1403
lclavicle 4.37326e-015 -1.23246e-014
lhumerus -29.2413 16.5687 75.988
lradius 12.2288
lwrist -19.1312
lhand -20.2753 -10.2821
lfingers 7.12502
lthumb 6.07405 19.6109
rfemur -19.7286 6.78549 15.966
rtibia 9.60619
rfoot -20.1935 -9.00714
rtoes -31.4821
lfemur -21.844 -10.7799 -23.7439
ltibia 12.5136
lfoot -10.4402 1.12672
ltoes -38.6747
52
root 8.96483 16.2707 31.6717 -158.525 -2.93817 176.046
lowerback -25.3895 -2.54692 -8.95108
upperback -1.2484 -1.13795 -1.39162
thorax 12.9629 -1.23885 3.08357
lowerneck 0.427751 -2.65741 -1.95389
upperneck -16.4912 -4.0344 6.15802
head -4.8364 -2.71038 2.4428
rclavicle -1.03368e-014 2.82274e-014
rhumerus -33.2297 -18.4304 -80.3563
rradius 26.6533
rwrist 0.665862
rhand -6.41416 -54.4964
rfingers 7.12502
rthumb 19.4342 -83.5452
lclavicle -1.03368e-014 2.82274e-014
lhumerus -29.0048 15.8134 76.5147
lradius 12.59
lwrist -17.9321
lhand -19.9481 -10.314
lfingers 7.12502
lthumb 6.38992 19.5696
rfemur -19.6602 6.73141 15.9841
rtibia 9.57586
rfoot -20.2256 -8.94382
rtoes -31.4906
lfemur -21.794 -10.7971 -23.743
ltibia 12.4996
lfoot -10.3675 1.13708
ltoes -38.5019
53
root 8.96359 16.2704 31.6714 -158.573 -2.87929 176.018
lowerback -25.3331 -2.51045 -8.9726
upperback -1.24436 -1.08655 -1.41268
thorax 12.9303 -1.21474 3.09157
lowerneck 0.413727 -2.65477 -2.01034
upperneck -16.419 -4.01996 6.21032
head -4.80971 -2.69877 2.46537
rclavicle -9.93923e-016 -3.65764e-014
rhumerus -33.1236 -18.6199 -80.2804
rradius 26.5332
rwrist 0.766802
rhand -6.53553 -53.4449
rfingers 7.12502
rthumb 19.3175 -82.5055
lclavicle -9.93923e-016 -3.65764e-014
lhumerus -28.6482 13.6453 77.6145
lradius 12.8266
lwrist -15.4031
lhand -20.2827 -10.2674
lfingers 7.12502
lthumb 6.06688 19.6257
rfemur -19.5812 6.73273 15.9402
rtibia 9.50216
rfoot -20.2441 -8.89399
rtoes -31.321
lfemur -21.7261 -10.7562 -23.801
ltibia 12.4992
lfoot -10.327 0.995226
ltoes -37.2255
54
root 8.96287 16.2706 31.6724 -158.574 -2.83598 175.996
lowerback -25.3049 -2.48419 -9.00427
upperback -1.24442 -1.04509 -1.42001
thorax 12.91 -1.19679 3.11691
lowerneck 0.421175 -2.64387 -2.04695
upperneck -16.4053 -4.00253 6.2181
head -4.80646 -2.68705 2.47291
rclavicle 1.77415e-014 -9.14409e-015
rhumerus -33.002 -18.6168 -80.3151
rradius 26.5797
rwrist 0.655969
rhand -6.61586 -53.2235
rfingers 7.12502
rthumb 19.2402 -82.2917
lclavicle 1.77415e-014 -9.14409e-015
lhumerus -28.2012 10.1695 79.2487
lradius 12.9971
lwrist -11.6209
lhand -20.9654 -10.1475
lfingers 7.12502
lthumb 5.40777 19.7635
rfemur -19.5894 6.74438 15.8974
rtibia 9.48819
rfoot -20.2089 -8.85245
rtoes -31.0679
lfemur -21.7215 -10.7147 -23.8425
ltibia 12.4903
lfoot -10.3087 0.881216
ltoes -36.3534
55
root 8.96267 16.271 31.6719 -158.551 -2.85827 175.999
lowerback -25.3156 -2.50255 -9.00877
upperback -1.24607 -1.06845 -1.40492
thorax 12.9172 -1.20834 3.12814
lowerneck 0.40932 -2.60993 -2.11378
upperneck -16.3647 -3.95421 6.22549
head -4.79236 -2.65728 2.48306
rclavicle -1.99779e-014 1.90833e-014
rhumerus -32.9228 -18.3776 -80.464
rradius 26.7991
rwrist 0.443196
rhand -6.77399 -53.9039
rfingers 7.12502
rthumb 19.0882 -82.9872
lclavicle -1.99779e-014 1.90833e-014
lhumerus -27.7112 9.92239 79.5158
lradius 12.4964
lwrist -11.7292
lhand -21.1856 -10.7111
lfingers 7.12502
lthumb 5.19513 19.2053
rfemur -19.6047 6.7374 15.8993
rtibia 9.48702
rfoot -20.1578 -8.81323
rtoes -31.0792
lfemur -21.7347 -10.686 -23.8426
ltibia 12.4825
lfoot -10.2993 0.868597
ltoes -36.8253
56
root 8.96159 16.2708 31.6708 -158.545 -2.87765 175.988
lowerback -25.3245 -2.51832 -9.00092
upperback -1.23549 -1.08804 -1.41403
thorax 12.9368 -1.21715 3.10559
lowerneck 0.41618 -2.59012 -2.11998
upperneck -16.3535 -3.92273 6.25417
head -4.7905 -2.64277 2.49168
rclavicle 4.17448e-015 5.56597e-015
rhumerus -32.7544 -18.4113 -80.5489
rradius 26.8267
rwrist 0.504527
rhand -6.9402 -54.5694
rfingers 7.12502
rthumb 18.9283 -83.6684
lclavicle 4.17448e-015 5.56597e-015
lhumerus -27.1387 12.603 78.5654
lradius 11.4479
lwrist -14.9413
lhand -21.5164 -11.3616
lfingers 7.12502
lthumb 4.87576 18.5623
rfemur -19.5725 6.72993 15.8793
rtibia 9.43593
rfoot -20.1437 -8.76158
rtoes -31.0929
lfemur -21.727 -10.5804 -23.8952
ltibia 12.4784
lfoot -10.2552 0.861209
ltoes -38.3656
57
root 8.96026 16.2705 31.6705 -158.537 -2.84642 175.927
lowerback -25.3327 -2.49188 -9.04383
upperback -1.22355 -1.03431 -1.47403
thorax 12.9481 -1.19495 3.07983
lowerneck 0.427235 -2.65619 -2.04142
upperneck -16.3463 -3.99426 6.38775
head -4.78531 -2.69159 2.52273
rclavicle -8.79622e-015 5.84427e-014
rhumerus -32.555 -18.849 -80.511
rradius 26.6683
rwrist 0.913929
rhand -6.85915 -54.7863
rfingers 7.12502
rthumb 19.0063 -83.8777
lclavicle -8.79622e-015 5.84427e-014
lhumerus -26.7477 13.3987 78.4146
lradius 11.1897
lwrist -15.4714
lhand -21.8724 -11.3842
lfingers 7.12502
lthumb 4.53195 18.5473
rfemur -19.5567 6.77737 15.7781
rtibia 9.34949
rfoot -20.13 -8.77332
rtoes -30.7125
lfemur -21.7278 -10.4847 -24.0055
ltibia 12.4586
lfoot -10.2009 0.875785
ltoes -38.8605
58
root 8.95902 16.2716 31.6722 -158.496 -2.86695 175.891
lowerback -25.3379 -2.46962 -9.06451
upperback -1.23795 -0.998396 -1.52273
thorax 12.9286 -1.17912 3.04853
lowerneck 0.511762 -2.7121 -1.9876
upperneck -16.3887 -4.05362 6.50279
head -4.80818 -2.73307 2.55465
rclavicle 1.74434e-014 -8.74653e-015
rhumerus -32.4853 -19.1414 -80.48
rradius 26.6069
rwrist 1.27311
rhand -6.59498 -54.2936
rfingers 7.12502
rthumb 19.2603 -83.3598
lclavicle 1.74434e-014 -8.74653e-015
lhumerus -26.777 10.9825 79.4964
lradius 12.2624
lwrist -12.3894
lhand -21.4127 -11.1581
lfingers 7.12502
lthumb 4.97584 18.7635
rfemur -19.6035 6.7569 15.7274
rtibia 9.32659
rfoot -20.1173 -8.83498
rtoes -30.6223
lfemur -21.7815 -10.544 -24.0191
ltibia 12.465
lfoot -10.2236 0.795565
ltoes -37.2931
59
root 8.95725 16.2731 31.6736 -158.499 -2.92121 175.921
lowerback -25.3101 -2.45757 -9.00859
upperback -1.24026 -1.00001 -1.53086
thorax 12.9098 -1.17506 3.00756
lowerneck 0.586292 -2.70627 -2.03937
upperneck -16.3888 -4.03718 6.53847
head -4.81936 -2.7225 2.5752
rclavicle -3.8763e-015 1.63003e-014
rhumerus -32.4283 -19.0019 -80.5657
rradius 26.6788
rwrist 1.21783
rhand -6.59706 -53.6096
rfingers 7.12502
rthumb 19.2583 -82.676
lclavicle -3.8763e-015 1.63003e-014
lhumerus -27.0448 8.39671 80.5684
lradius 13.5318
lwrist -9.72148
lhand -21.1919 -11.0069
lfingers 7.12502
lthumb 5.18908 18.9095
rfemur -19.5973 6.66115 15.7859
rtibia 9.37095
rfoot -20.1102 -8.84112
rtoes -31.0383
lfemur -21.7752 -10.5729 -23.9678
ltibia 12.4343
lfoot -10.176 0.675007
ltoes -36.3553
